<?xml version="1.0" encoding="utf-8"?>
<!-- Generator: Adobe Illustrator 18.0.0, SVG Export Plug-In . SVG Version: 6.00 Build 0)  -->
<!DOCTYPE svg PUBLIC "-//W3C//DTD SVG 1.1//EN" "http://www.w3.org/Graphics/SVG/1.1/DTD/svg11.dtd">
<svg version="1.1" id="Layer_1" xmlns="http://www.w3.org/2000/svg" xmlns:xlink="http://www.w3.org/1999/xlink" x="0px" y="0px"
	 viewBox="0 0 236.6 27.4" enable-background="new 0 0 236.6 27.4" xml:space="preserve">
<path fill="#2F1E0F" d="M0,27V0h7.3c8.8,0,11.4,5.8,11.4,13.5c0,7.7-2.6,13.5-11.4,13.5H0z M2.4,24.7h5c6.5,0,8.6-4.8,8.6-11.2
	C16.1,7,14,2.3,7.5,2.3h-5V24.7z"/>
<path fill="#2F1E0F" d="M26,27h-2.4V0H32c6.7,0,8.8,3,8.8,7.6c0,3.6-1.3,6.2-5,7.2L42.3,27h-2.8l-6-11.8c-0.4,0-0.8,0-1.2,0H26V27z
	 M26,12.9h6.7c4.8,0,5.5-2.4,5.5-5.3s-0.7-5.3-5.5-5.3H26V12.9z"/>
<path fill="#2F1E0F" d="M60.3,14.1h-12v10.7h13.2V27H45.9V0h15.7v2.3H48.4v9.5h12V14.1z"/>
<path fill="#2F1E0F" d="M81,0L87,23.5L91.8,0h2.6l-5.9,27.4h-2.6L79.6,3.2l-6.2,24.1h-2.6L64.8,0h2.6l4.7,23.5L78.2,0H81z"/>
<path fill="#2F1E0F" d="M102.1,26h13.1v1H101V0h1.1V26z"/>
<path fill="#2F1E0F" d="M119.4,27V0h1.2v27H119.4z"/>
<path fill="#2F1E0F" d="M133.9,1v26h-1.2V1h-7.8V0h16.8v1H133.9z"/>
<path fill="#2F1E0F" d="M152.9,1v26h-1.2V1h-7.8V0h16.8v1H152.9z"/>
<path fill="#2F1E0F" d="M165.5,27h-1.2V0h8.5c6.7,0,8.2,2.7,8.2,7.3c0,4-1.1,6.5-5.7,7.1l6.8,12.6h-1.4l-6.5-12.5
	c-0.4,0-0.9,0-1.3,0h-7.3V27z M173.4,13.5c5.7,0,6.5-2.8,6.5-6.2c0-3.5-0.8-6.2-6.5-6.2h-7.9v12.5H173.4z"/>
<path fill="#2F1E0F" d="M199,13.5h-12.5V26h13.8v1h-15V0h15v1h-13.8v11.4H199V13.5z"/>
<path fill="#2F1E0F" d="M206,26H219v1h-14.2V0h1.1V26z"/>
<path fill="#2F1E0F" d="M223.6,26h13.1v1h-14.2V0h1.1V26z"/>
</svg>
