<?xml version="1.0" encoding="utf-8"?>
<!-- Generator: Adobe Illustrator 18.0.0, SVG Export Plug-In . SVG Version: 6.00 Build 0)  -->
<!DOCTYPE svg PUBLIC "-//W3C//DTD SVG 1.1//EN" "http://www.w3.org/Graphics/SVG/1.1/DTD/svg11.dtd">
<svg version="1.1" id="Layer_1" xmlns="http://www.w3.org/2000/svg" xmlns:xlink="http://www.w3.org/1999/xlink" x="0px" y="0px"
	 viewBox="0 0 88.1 20.1" enable-background="new 0 0 88.1 20.1" xml:space="preserve">
<path fill="#2F1E0F" stroke="#2F1E0F" stroke-width="3" stroke-miterlimit="10" d="M64.2,1.5h24H64.2z"/>
<path fill="#2F1E0F" stroke="#2F1E0F" stroke-width="3" stroke-miterlimit="10" d="M64.2,9.9h24H64.2z"/>
<path fill="#2F1E0F" stroke="#2F1E0F" stroke-width="3" stroke-miterlimit="10" d="M64.2,18.6h24H64.2z"/>
<g>
	<path d="M5.8,15L2.1,5.7H2c0,0.6,0.1,1.1,0.1,1.7V15H1.4V5h1.1l3.6,8.8h0L9.7,5h1.1v10H10V7.4c0-0.5,0-1.1,0.1-1.6H10L6.3,15H5.8z"
		/>
	<path d="M20.8,15h-5.5V5h5.5v0.6H16v3.8h4.5V10H16v4.3h4.8V15z"/>
	<path d="M32.1,15h-0.7l-5.9-8.9h-0.1c0.1,1.1,0.1,1.9,0.1,2.4V15h-0.7V5h0.7l5.9,8.9h0c0-0.8-0.1-1.6-0.1-2.3V5h0.7V15z"/>
	<path d="M44.1,5v6.5c0,1.1-0.3,2-1,2.7c-0.7,0.6-1.6,1-2.8,1c-1.2,0-2.1-0.3-2.7-1c-0.7-0.6-1-1.6-1-2.7V5h0.7v6.5
		c0,1,0.3,1.7,0.8,2.2c0.5,0.5,1.3,0.8,2.3,0.8c1,0,1.7-0.3,2.2-0.8s0.8-1.3,0.8-2.2V5H44.1z"/>
</g>
</svg>
